<mxfile host="app.diagrams.net" modified="2024-05-21T10:47:33.439Z" agent="Mozilla/5.0 (Windows NT 10.0; Win64; x64) AppleWebKit/537.36 (KHTML, like Gecko) Chrome/124.0.0.0 Safari/537.36" etag="ebww_eq7Cnfn0r9qgAjD" version="24.4.4" type="device">
  <diagram name="Page-1" id="KO4bl8-s91OEY2ycZK85">
    <mxGraphModel dx="792" dy="768" grid="1" gridSize="10" guides="1" tooltips="1" connect="1" arrows="1" fold="1" page="1" pageScale="1" pageWidth="850" pageHeight="1100" math="0" shadow="0">
      <root>
        <mxCell id="0" />
        <mxCell id="1" parent="0" />
        <mxCell id="OmwQ1bmNglg1Abz7YB2b-14" value="GitHub Actions/Workflow&lt;br&gt;Running on Ubuntu-latest runner:" style="whiteSpace=wrap;html=1;aspect=fixed;align=center;verticalAlign=top;" vertex="1" parent="1">
          <mxGeometry x="360" width="770" height="770" as="geometry" />
        </mxCell>
        <mxCell id="OmwQ1bmNglg1Abz7YB2b-3" value="GitHub Repo" style="whiteSpace=wrap;html=1;aspect=fixed;fillColor=none;" vertex="1" parent="1">
          <mxGeometry x="10" y="80" width="200" height="200" as="geometry" />
        </mxCell>
        <mxCell id="OmwQ1bmNglg1Abz7YB2b-4" value="Dev" style="shape=umlActor;verticalLabelPosition=bottom;verticalAlign=top;html=1;outlineConnect=0;" vertex="1" parent="1">
          <mxGeometry x="95" y="455.63" width="30" height="60" as="geometry" />
        </mxCell>
        <mxCell id="OmwQ1bmNglg1Abz7YB2b-5" value="" style="endArrow=classic;html=1;rounded=0;entryX=0.5;entryY=1;entryDx=0;entryDy=0;" edge="1" parent="1" target="OmwQ1bmNglg1Abz7YB2b-3">
          <mxGeometry width="50" height="50" relative="1" as="geometry">
            <mxPoint x="110" y="450" as="sourcePoint" />
            <mxPoint x="370" y="470" as="targetPoint" />
          </mxGeometry>
        </mxCell>
        <mxCell id="OmwQ1bmNglg1Abz7YB2b-11" value="" style="endArrow=classic;html=1;rounded=0;exitX=1;exitY=0.562;exitDx=0;exitDy=0;entryX=0;entryY=0.25;entryDx=0;entryDy=0;exitPerimeter=0;" edge="1" parent="1" source="OmwQ1bmNglg1Abz7YB2b-3" target="OmwQ1bmNglg1Abz7YB2b-14">
          <mxGeometry width="50" height="50" relative="1" as="geometry">
            <mxPoint x="100" y="480" as="sourcePoint" />
            <mxPoint x="340" y="200" as="targetPoint" />
          </mxGeometry>
        </mxCell>
        <mxCell id="OmwQ1bmNglg1Abz7YB2b-12" value="Step 1)&amp;nbsp; The latest repository code gets checked out." style="whiteSpace=wrap;html=1;aspect=fixed;fillColor=none;" vertex="1" parent="1">
          <mxGeometry x="370" y="100" width="200" height="200" as="geometry" />
        </mxCell>
        <mxCell id="OmwQ1bmNglg1Abz7YB2b-13" value="GitHub Actions &lt;br&gt;Triggers Pipeline" style="text;html=1;align=center;verticalAlign=middle;resizable=0;points=[];autosize=1;strokeColor=none;fillColor=none;" vertex="1" parent="1">
          <mxGeometry x="230" y="200" width="110" height="40" as="geometry" />
        </mxCell>
        <mxCell id="OmwQ1bmNglg1Abz7YB2b-16" value="" style="endArrow=classic;html=1;rounded=0;exitX=1;exitY=0.5;exitDx=0;exitDy=0;entryX=0;entryY=0.5;entryDx=0;entryDy=0;" edge="1" parent="1" source="OmwQ1bmNglg1Abz7YB2b-12" target="OmwQ1bmNglg1Abz7YB2b-17">
          <mxGeometry width="50" height="50" relative="1" as="geometry">
            <mxPoint x="580" y="190" as="sourcePoint" />
            <mxPoint x="790" y="190" as="targetPoint" />
          </mxGeometry>
        </mxCell>
        <mxCell id="OmwQ1bmNglg1Abz7YB2b-17" value="Step 2)&amp;nbsp; Set up AWS Credentials. These are stored as secrets within our GitHub repository.&amp;nbsp;" style="whiteSpace=wrap;html=1;aspect=fixed;fillColor=none;" vertex="1" parent="1">
          <mxGeometry x="815" y="100" width="200" height="200" as="geometry" />
        </mxCell>
        <mxCell id="OmwQ1bmNglg1Abz7YB2b-20" value="Step 3)&amp;nbsp; Authenticate into ECR.&amp;nbsp;" style="whiteSpace=wrap;html=1;aspect=fixed;fillColor=none;" vertex="1" parent="1">
          <mxGeometry x="830" y="320" width="170" height="170" as="geometry" />
        </mxCell>
        <mxCell id="OmwQ1bmNglg1Abz7YB2b-21" value="" style="endArrow=classic;html=1;rounded=0;exitX=0.5;exitY=1;exitDx=0;exitDy=0;entryX=0.5;entryY=0;entryDx=0;entryDy=0;" edge="1" parent="1" source="OmwQ1bmNglg1Abz7YB2b-17" target="OmwQ1bmNglg1Abz7YB2b-20">
          <mxGeometry width="50" height="50" relative="1" as="geometry">
            <mxPoint x="590" y="200" as="sourcePoint" />
            <mxPoint x="800" y="200" as="targetPoint" />
          </mxGeometry>
        </mxCell>
        <mxCell id="OmwQ1bmNglg1Abz7YB2b-23" value="Step 4)&amp;nbsp; Build, tag, and push docker image to Amazon ECR.&amp;nbsp;" style="whiteSpace=wrap;html=1;aspect=fixed;fillColor=none;" vertex="1" parent="1">
          <mxGeometry x="815" y="510" width="200" height="200" as="geometry" />
        </mxCell>
        <mxCell id="OmwQ1bmNglg1Abz7YB2b-25" value="" style="endArrow=classic;html=1;rounded=0;exitX=0.5;exitY=1;exitDx=0;exitDy=0;entryX=0.5;entryY=0;entryDx=0;entryDy=0;" edge="1" parent="1" source="OmwQ1bmNglg1Abz7YB2b-20" target="OmwQ1bmNglg1Abz7YB2b-23">
          <mxGeometry width="50" height="50" relative="1" as="geometry">
            <mxPoint x="900" y="310" as="sourcePoint" />
            <mxPoint x="900" y="350" as="targetPoint" />
          </mxGeometry>
        </mxCell>
        <mxCell id="OmwQ1bmNglg1Abz7YB2b-26" value="Step 5)&amp;nbsp; Deploy to ECS, via launching a new ECS task.&amp;nbsp;" style="whiteSpace=wrap;html=1;aspect=fixed;fillColor=none;" vertex="1" parent="1">
          <mxGeometry x="540.25" y="515.63" width="190" height="190" as="geometry" />
        </mxCell>
        <mxCell id="OmwQ1bmNglg1Abz7YB2b-27" value="" style="endArrow=classic;html=1;rounded=0;exitX=0;exitY=0.5;exitDx=0;exitDy=0;entryX=1;entryY=0.5;entryDx=0;entryDy=0;" edge="1" parent="1" source="OmwQ1bmNglg1Abz7YB2b-23" target="OmwQ1bmNglg1Abz7YB2b-26">
          <mxGeometry width="50" height="50" relative="1" as="geometry">
            <mxPoint x="590" y="200" as="sourcePoint" />
            <mxPoint x="800" y="200" as="targetPoint" />
          </mxGeometry>
        </mxCell>
        <mxCell id="OmwQ1bmNglg1Abz7YB2b-28" value="Amazon ECR" style="sketch=0;outlineConnect=0;fontColor=#232F3E;gradientColor=none;strokeColor=#ffffff;fillColor=#232F3E;dashed=0;verticalLabelPosition=middle;verticalAlign=bottom;align=center;html=1;whiteSpace=wrap;fontSize=10;fontStyle=1;spacing=3;shape=mxgraph.aws4.productIcon;prIcon=mxgraph.aws4.ecr;" vertex="1" parent="1">
          <mxGeometry x="895" y="638.45" width="40" height="58.74" as="geometry" />
        </mxCell>
        <mxCell id="OmwQ1bmNglg1Abz7YB2b-29" value="Amazon ECS" style="sketch=0;outlineConnect=0;fontColor=#232F3E;gradientColor=none;strokeColor=#ffffff;fillColor=#232F3E;dashed=0;verticalLabelPosition=middle;verticalAlign=bottom;align=center;html=1;whiteSpace=wrap;fontSize=10;fontStyle=1;spacing=3;shape=mxgraph.aws4.productIcon;prIcon=mxgraph.aws4.ecs;" vertex="1" parent="1">
          <mxGeometry x="605" y="630" width="60.5" height="75.63" as="geometry" />
        </mxCell>
        <mxCell id="OmwQ1bmNglg1Abz7YB2b-30" value="" style="verticalLabelPosition=bottom;html=1;verticalAlign=top;align=center;strokeColor=none;fillColor=#00BEF2;shape=mxgraph.azure.github_code;pointerEvents=1;" vertex="1" parent="1">
          <mxGeometry x="440" y="225" width="40" height="40" as="geometry" />
        </mxCell>
        <mxCell id="OmwQ1bmNglg1Abz7YB2b-31" value="" style="outlineConnect=0;dashed=0;verticalLabelPosition=bottom;verticalAlign=top;align=center;html=1;shape=mxgraph.aws3.cloud_2;fillColor=#F58534;gradientColor=none;" vertex="1" parent="1">
          <mxGeometry x="890" y="220" width="45" height="45" as="geometry" />
        </mxCell>
        <mxCell id="OmwQ1bmNglg1Abz7YB2b-32" value="Amazon ECR" style="sketch=0;outlineConnect=0;fontColor=#232F3E;gradientColor=none;strokeColor=#ffffff;fillColor=#232F3E;dashed=0;verticalLabelPosition=middle;verticalAlign=bottom;align=center;html=1;whiteSpace=wrap;fontSize=10;fontStyle=1;spacing=3;shape=mxgraph.aws4.productIcon;prIcon=mxgraph.aws4.ecr;" vertex="1" parent="1">
          <mxGeometry x="895" y="431.26" width="40" height="58.74" as="geometry" />
        </mxCell>
        <mxCell id="OmwQ1bmNglg1Abz7YB2b-33" value="&lt;span style=&quot;color: rgb(0, 0, 0); font-family: Helvetica; font-size: 12px; font-style: normal; font-variant-ligatures: normal; font-variant-caps: normal; font-weight: 400; letter-spacing: normal; orphans: 2; text-align: center; text-indent: 0px; text-transform: none; widows: 2; word-spacing: 0px; -webkit-text-stroke-width: 0px; white-space: nowrap; background-color: rgb(251, 251, 251); text-decoration-thickness: initial; text-decoration-style: initial; text-decoration-color: initial; display: inline !important; float: none;&quot;&gt;Pushes change&lt;br&gt;&amp;nbsp;to master&lt;/span&gt;" style="text;whiteSpace=wrap;html=1;" vertex="1" parent="1">
          <mxGeometry x="120" y="350" width="100" height="23.53" as="geometry" />
        </mxCell>
      </root>
    </mxGraphModel>
  </diagram>
</mxfile>
